<?xml version="1.0" encoding="UTF-8" standalone="no"?>
<!-- Created with Inkscape (http://www.inkscape.org/) -->

<svg
   width="32"
   height="32"
   viewBox="0 0 8.4666665 8.4666669"
   version="1.1"
   id="svg5"
   inkscape:version="1.1 (c4e8f9ed74, 2021-05-24)"
   sodipodi:docname="windows.svg"
   xmlns:inkscape="http://www.inkscape.org/namespaces/inkscape"
   xmlns:sodipodi="http://sodipodi.sourceforge.net/DTD/sodipodi-0.dtd"
   xmlns="http://www.w3.org/2000/svg"
   xmlns:svg="http://www.w3.org/2000/svg">
  <sodipodi:namedview
     id="namedview7"
     pagecolor="#505050"
     bordercolor="#eeeeee"
     borderopacity="1"
     inkscape:pageshadow="0"
     inkscape:pageopacity="0"
     inkscape:pagecheckerboard="0"
     inkscape:document-units="mm"
     showgrid="true"
     units="px"
     width="32px"
     inkscape:zoom="49.773737"
     inkscape:cx="15.339415"
     inkscape:cy="17.418825"
     inkscape:window-width="3840"
     inkscape:window-height="2091"
     inkscape:window-x="0"
     inkscape:window-y="0"
     inkscape:window-maximized="1"
     inkscape:current-layer="layer1">
    <inkscape:grid
       type="xygrid"
       id="grid824"
       empspacing="4" />
  </sodipodi:namedview>
  <defs
     id="defs2" />
  <g
     inkscape:label="Layer 1"
     inkscape:groupmode="layer"
     id="layer1">
    <path
       id="rect3669"
       style="fill:#0064ff;fill-opacity:1;stroke:none;stroke-width:3.99999;stroke-linecap:round;stroke-linejoin:round"
       d="M 4 2 C 2.8919999 2 2 2.8919999 2 4 L 2 12 L 2 13 L 2 15 L 4 15 L 6 15 L 13 15 L 15 15 L 15 13 L 15 4 L 15 2 L 13 2 L 4 2 z M 17 2 L 17 4 L 17 13 L 17 15 L 19 15 L 26 15 L 28 15 L 30 15 L 30 13 L 30 12 L 30 4 C 30 2.892 29.108 2 28 2 L 19 2 L 17 2 z M 2 17 L 2 19 L 2 20 L 2 28 C 2 29.108 2.892 30 4 30 L 13 30 L 15 30 L 15 28 L 15 19 L 15 17 L 13 17 L 6 17 L 4 17 L 2 17 z M 17 17 L 17 19 L 17 28 L 17 30 L 19 30 L 28 30 C 29.108 30 30 29.108 30 28 L 30 20 L 30 19 L 30 17 L 28 17 L 26 17 L 19 17 L 17 17 z "
       transform="scale(0.26458333)" />
  </g>
</svg>
