<?xml version="1.0" encoding="UTF-8" standalone="no"?>
<!-- Created with Inkscape (http://www.inkscape.org/) -->

<svg
   width="32"
   height="32"
   viewBox="0 0 8.4666665 8.4666669"
   version="1.1"
   id="svg5"
   inkscape:version="1.1 (c4e8f9ed74, 2021-05-24)"
   sodipodi:docname="macos.svg"
   xmlns:inkscape="http://www.inkscape.org/namespaces/inkscape"
   xmlns:sodipodi="http://sodipodi.sourceforge.net/DTD/sodipodi-0.dtd"
   xmlns="http://www.w3.org/2000/svg"
   xmlns:svg="http://www.w3.org/2000/svg">
  <sodipodi:namedview
     id="namedview7"
     pagecolor="#505050"
     bordercolor="#eeeeee"
     borderopacity="1"
     inkscape:pageshadow="0"
     inkscape:pageopacity="0"
     inkscape:pagecheckerboard="0"
     inkscape:document-units="mm"
     showgrid="true"
     units="px"
     width="32px"
     inkscape:zoom="24.886869"
     inkscape:cx="26.499919"
     inkscape:cy="25.555646"
     inkscape:window-width="3840"
     inkscape:window-height="2091"
     inkscape:window-x="0"
     inkscape:window-y="0"
     inkscape:window-maximized="1"
     inkscape:current-layer="layer1">
    <inkscape:grid
       type="xygrid"
       id="grid824"
       empspacing="4" />
  </sodipodi:namedview>
  <defs
     id="defs2" />
  <g
     inkscape:label="Layer 1"
     inkscape:groupmode="layer"
     id="layer1">
    <path
       id="path4424"
       style="fill:#ffffff;fill-opacity:1;stroke:none;stroke-width:3.99999;stroke-linecap:round;stroke-linejoin:round;stroke-opacity:1"
       d="M 16 4 A 12 12 0 0 0 4 16 A 12 12 0 0 0 5.4980469 21.792969 L 15 12.291016 L 20 17.292969 L 23.001953 14.291016 L 27.630859 18.925781 A 12 12 0 0 0 28 16 A 12 12 0 0 0 16 4 z M 15 13.708984 L 6.0332031 22.675781 A 12 12 0 0 0 16 28 A 12 12 0 0 0 25.101562 23.810547 L 20 18.708984 L 14.349609 24.353516 L 13.648438 23.644531 L 19.292969 18 L 15 13.708984 z M 23.001953 15.708984 L 20.707031 18.001953 L 25.722656 23.019531 A 12 12 0 0 0 27.300781 20.007812 L 23.001953 15.708984 z "
       transform="scale(0.26458333)" />
    <path
       id="path4725"
       style="fill:#ffffff;fill-opacity:1;stroke:none;stroke-width:3.99999;stroke-linecap:round;stroke-linejoin:round;stroke-opacity:1"
       d="M 16 2 A 14 14 0 0 0 2 16 A 14 14 0 0 0 16 30 A 14 14 0 0 0 30 16 A 14 14 0 0 0 16 2 z M 16 4 A 12 12 0 0 1 28 16 A 12 12 0 0 1 16 28 A 12 12 0 0 1 4 16 A 12 12 0 0 1 16 4 z "
       transform="scale(0.26458333)" />
  </g>
</svg>
